<?xml version="1.0" encoding="utf-8"?>
<!-- Generator: Adobe Illustrator 25.2.1, SVG Export Plug-In . SVG Version: 6.00 Build 0)  -->
<svg version="1.1" id="レイヤー_1" xmlns="http://www.w3.org/2000/svg" xmlns:xlink="http://www.w3.org/1999/xlink" x="0px"
	 y="0px" viewBox="0 0 500 500" style="enable-background:new 0 0 500 500;" xml:space="preserve">
<style type="text/css">
	.st0{fill:#009C77;}
	.st1{fill:#FFFFFF;}
</style>
<g>
	<g>
		<path d="M120.1,376.2H106v-13.4h41.5v13.4h-14.1V451h-13.3C120.1,451,120.1,376.2,120.1,376.2z"/>
		<path d="M190.2,362.8c7.4,0,12.9,2,16.3,6.1c3,3.6,4.6,8.5,4.6,14.9v12.8c0,6.2-2.4,11.5-7.1,15.8l9.9,38.5h-14.4l-8.1-33.2
			c-0.4,0-0.8,0-1.2,0h-7.7V451h-13.3v-88.2H190.2z M198.2,384c0-5.1-2.5-7.7-7.6-7.7h-8v28.2h8c2.1,0,3.9-0.8,5.4-2.3
			s2.2-3.3,2.2-5.4L198.2,384L198.2,384z"/>
		<path class="st0" d="M242.3,414l-17.8-51.3h14.6l9.9,31.7l9.8-31.7h14.7L255.6,414v37h-13.3V414z"/>
		<path d="M302.5,430.7l-3.2,20.3h-13.8l15-88.2h18.3l14.8,88.2h-14l-3.1-20.3H302.5z M309.5,383l-4.9,34.8h9.9L309.5,383z"/>
		<path d="M393.3,429.8c0,5.8-2,10.8-6.1,14.9s-9,6.2-14.8,6.2h-20.9v-88.2h20.9c5.8,0,10.8,2.1,14.8,6.2c4.1,4.1,6.1,9.1,6.1,14.8
			V429.8z M364.8,437.8h8c2.1,0,3.9-0.8,5.3-2.3c1.5-1.5,2.2-3.3,2.2-5.4V384c0-2.1-0.7-3.9-2.2-5.4s-3.2-2.3-5.3-2.3h-8V437.8z"/>
	</g>
	<g>
		<path d="M107.5,471.1c-0.9,0-1.5-0.8-1.5-1.7c0-0.9,0.5-1.8,1.4-1.8h20.7c0.9,0,1.4,0.8,1.4,1.8c0,0.9-0.6,1.7-1.4,1.7h-8.5V497
			c0,1.1-0.8,1.6-1.8,1.6S116,498,116,497v-25.9H107.5z"/>
		<path d="M155.9,496.3c0.1,0.2,0.1,0.4,0.1,0.7c0,0.7-0.5,1.3-1.2,1.5c-0.3,0.1-0.6,0.1-0.8,0.1c-0.6,0-1.2-0.3-1.5-1l-0.9-2.5
			c-2.7-7.7-3.8-10.5-7.5-10.5h-6.9V497c0,1.1-0.7,1.7-1.7,1.7c-1.1,0-1.8-0.6-1.8-1.7v-25c0-3,1.2-4.3,3.8-4.3h8.8
			c5.4,0,8.4,3,8.4,7.9c0,4.5-2.4,6.9-5.9,7.7c2.3,0.7,3.5,3.3,6.2,10.7L155.9,496.3z M145.8,481.4c3.2,0,5.3-2.1,5.3-5.2
			c0-3.4-1.7-5.2-5.1-5.2h-7.6c-0.8,0-1.2,0.4-1.2,1.4v9L145.8,481.4L145.8,481.4z"/>
		<path d="M179.3,468.2c0.3-0.6,0.8-0.8,1.4-0.8c0.3,0,0.7,0.1,1,0.3c0.6,0.3,1,0.9,1,1.6c0,0.3-0.1,0.6-0.3,0.9l-9.9,15.6V497
			c0,1.1-0.7,1.6-1.8,1.6s-1.8-0.6-1.8-1.6v-11.2l-10-15.7c-0.2-0.3-0.2-0.5-0.2-0.8c0-0.7,0.5-1.3,1.1-1.6c0.3-0.2,0.7-0.3,1-0.3
			c0.5,0,1,0.2,1.3,0.8l8.6,14L179.3,468.2z"/>
		<path d="M184.7,497.5c-0.3,0.8-0.8,1.1-1.5,1.1c-0.3,0-0.5,0-0.8-0.1c-0.7-0.2-1.3-0.9-1.3-1.6c0-0.2,0-0.4,0.1-0.7l10.2-26.9
			c0.5-1.3,1.4-1.9,2.6-1.9c1.2,0,2.2,0.5,2.7,1.9l10.2,27c0.1,0.2,0.1,0.4,0.1,0.7c0,0.8-0.6,1.4-1.4,1.6c-0.2,0.1-0.5,0.1-0.7,0.1
			c-0.7,0-1.3-0.4-1.5-1.1l-3-8.2h-13L184.7,497.5z M199.4,486.1l-4.2-11.5c-0.4-1.1-0.8-2.4-1.2-3.7c-0.3,1.3-0.7,2.6-1.2,3.8
			l-4.2,11.4L199.4,486.1L199.4,486.1z"/>
		<path d="M211.6,471.9c0-3,1.2-4.3,3.8-4.3h6.7c8.3,0,13.2,5.5,13.2,15c0,9.8-5,15.7-13.2,15.7h-6.7c-2.7,0-3.8-1.2-3.8-4.2V471.9z
			 M215.2,493.6c0,0.9,0.5,1.3,1.2,1.3h5.6c6.1,0,9.6-4.5,9.6-12.2c0-7.5-3.3-11.7-9.5-11.7h-5.6c-0.7,0-1.2,0.5-1.2,1.3v21.3H215.2
			z"/>
		<path d="M275.7,474.2c0.1,0.3,0.1,0.6,0.1,0.8c0,0.8-0.6,1.4-1.2,1.6c-0.3,0.1-0.6,0.2-0.9,0.2c-0.6,0-1.2-0.3-1.6-1
			c-1.1-2.8-3-5.2-7.3-5.2c-5.6,0-9.3,4.8-9.3,12.5c0,7.6,3.7,12.5,9.3,12.5c4.5,0,6.6-2.8,7.6-6c0.3-0.9,1-1.2,1.7-1.2
			c0.2,0,0.5,0,0.8,0.1c0.6,0.2,1.3,0.7,1.3,1.6c0,0.2,0,0.4-0.1,0.7c-1.3,3.9-4.5,8.3-11.1,8.3c-8.1,0-13.2-6.2-13.2-16
			c0-9.6,5.1-15.9,12.9-15.9C271.4,467.1,274.3,470.7,275.7,474.2z"/>
		<path d="M298.6,487.4c0,6.9-3.6,11.6-9.5,11.6c-6.2,0-9.8-4.6-9.8-11.6c0-6.8,3.6-11.4,9.7-11.4
			C295.1,476,298.6,480.6,298.6,487.4z M282.8,487.5c0,5,2.3,8.4,6.1,8.4c4.1,0,6.2-3.4,6.2-8.6c0-5-2.1-8.4-6-8.4
			C285.1,479,282.8,482.3,282.8,487.5z"/>
		<path d="M308.5,495.9c0,1.7-1.1,2.8-2.6,2.8s-2.6-1.1-2.6-2.8c0-1.6,1.1-2.7,2.6-2.7C307.4,493.2,308.5,494.3,308.5,495.9z"/>
		<path d="M317.4,498.7L317.4,498.7c0-0.2-0.1-0.3-0.2-0.3h-0.1c-0.2,0-0.3,0-0.4,0c-1.2,0-2.3-1-2.3-2.6c0-1.4,0.9-2.6,2.5-2.6
			s2.9,1.2,2.9,3.6c0,1.5-0.4,2.9-0.9,3.9c-0.6,1.2-1.7,2-2.6,2.7c-0.2,0.1-0.3,0.2-0.5,0.2c-0.4,0-0.7-0.2-0.9-0.5
			c-0.1-0.2-0.1-0.4-0.1-0.6c0-0.3,0.1-0.6,0.4-0.8c0.6-0.4,1.2-0.9,1.7-1.5C317,499.9,317.3,499.3,317.4,498.7z"/>
		<path d="M326.2,469.1c0-1.2,0.8-1.7,1.8-1.7c1.1,0,1.8,0.5,1.8,1.7v24.4c0,0.9,0.5,1.4,1.4,1.4h13.3c1,0,1.5,0.7,1.5,1.7
			c0,0.9-0.6,1.8-1.5,1.8h-14.4c-2.7,0-3.8-1.2-3.8-4.2L326.2,469.1L326.2,469.1z"/>
		<path d="M351.4,471.8c0-1,0.6-1.6,1.7-1.6c1,0,1.7,0.6,1.7,1.6v4.8h4.8c0.9,0,1.4,0.6,1.4,1.6c0,0.9-0.5,1.5-1.4,1.5h-4.8v13.2
			c0,1.9,0.8,2.8,2.2,2.8c0.9,0,1.6-0.3,2.2-0.7c0.2-0.1,0.4-0.2,0.7-0.2c0.6,0,1,0.4,1.2,1c0.1,0.3,0.1,0.6,0.1,0.9
			c0,0.6-0.2,1.1-0.8,1.4c-1.1,0.6-2.1,0.9-3.7,0.9c-3.1,0-5.3-1.6-5.3-5.8v-13.5h-2.9c-0.9,0-1.3-0.6-1.3-1.5s0.4-1.6,1.4-1.6h2.9
			v-4.8H351.4z"/>
		<path d="M379.1,469c0-1.1,0.7-1.6,1.7-1.6c1.1,0,1.7,0.5,1.7,1.6v28c0,1.1-0.7,1.6-1.7,1.6c-1.1,0-1.6-0.6-1.6-1.5v-0.8
			c0-0.4,0.1-1.3,0.1-1.8c-1.3,2.8-3.4,4.5-6.9,4.5c-5.5,0-8.9-4.5-8.9-11.6c0-6.9,3.4-11.3,9-11.3c3.5,0,5.6,1.7,6.9,4.5
			c-0.1-0.9-0.2-2-0.2-2.9V469H379.1z M366.8,487.4c0,5.2,2.2,8.5,6,8.5c3.9,0,6.4-3.6,6.4-8.5c0-4.8-2.3-8.4-6.4-8.4
			C369,479.1,366.8,482.4,366.8,487.4z"/>
		<path d="M393.3,495.9c0,1.7-1.1,2.8-2.6,2.8s-2.6-1.1-2.6-2.8c0-1.6,1.1-2.7,2.6-2.7C392.2,493.2,393.3,494.3,393.3,495.9z"/>
	</g>
	<g>
		<polygon class="st1" points="237.6,247 160.6,247 153,260.2 245.3,260.2 		"/>
		<polygon class="st1" points="229.8,233.3 168.5,233.3 160.8,246.6 237.4,246.6 		"/>
		<polygon points="221.8,219.6 221.8,219.7 176.4,219.7 168.7,232.9 229.5,232.9 		"/>
		<polygon points="245.5,260.6 152.7,260.6 145.1,273.8 253.1,273.8 		"/>
		<polygon class="st1" points="214,206.1 184.2,206.1 176.6,219.3 221.7,219.3 		"/>
		<polygon class="st1" points="253.3,274.2 253.3,274.2 144.9,274.2 137.2,287.5 261,287.5 		"/>
		<polygon points="206.1,192.5 192.1,192.5 184.5,205.7 213.8,205.7 		"/>
		<polygon class="st1" points="199.1,180.3 192.3,192.1 205.9,192.1 		"/>
		<polygon points="277,315.1 121.3,315.1 113.6,328.4 284.6,328.4 		"/>
		<polygon class="st1" points="269.1,301.5 129.1,301.5 121.5,314.7 276.7,314.7 		"/>
		<polygon class="st1" points="292.2,341.6 284.8,328.8 113.4,328.8 113.4,328.8 106,341.6 		"/>
		<polygon points="261.2,287.9 137,287.9 129.4,301.1 268.9,301.1 		"/>
		<path d="M199.3,179.8l-0.2-0.3l-93.6,162.2l-0.2,0.3h187.6L199.3,179.8z M113.4,328.4h0.2l7.6-13.2h-0.1v-0.4h0.3l7.6-13.2l0,0
			v-0.4h0.4L137,288h-0.1v-0.4h0.3l7.6-13.2h-0.1V274h0.3l7.6-13.2h-0.1v-0.4h0.3l7.6-13.2h-0.1v-0.4h0.3l7.6-13.2h-0.1v-0.4h0.3
			L176,220h-0.1v-0.4h0.3l7.6-13.2h-0.1V206h0.3l7.6-13.2h0.4v-0.4h0.3l6.8-11.8l6.8,11.8h0.3v0.4h-0.1l7.6,13.2h0.3v0.4h0l7.6,13.2
			h0.2v0.3l7.7,13.3h0.4v0.4h-0.2l7.6,13.2h0.4v0.4h-0.2l7.6,13.2h0.3v0.4h-0.1l7.6,13.2h0.2v0.3l7.7,13.3h0.3v0.4H261l7.6,13.2h0.3
			v0.4h-0.1l7.6,13.2h0.4v0.4h0.2l7.6,13.2h0.3v0.4h-0.1l7.4,12.8H106l7.4-12.8V328.4z"/>
		<polygon points="206.3,192.5 206.3,192.1 205.9,192.1 192.3,192.1 192,192.1 192,192.5 192.1,192.5 206.1,192.5 		"/>
		<polygon points="214.1,206.1 214.1,205.7 213.8,205.7 184.5,205.7 184.1,205.7 184.1,206.1 184.2,206.1 214,206.1 		"/>
		<polygon points="221.8,219.6 221.8,219.3 221.7,219.3 176.6,219.3 176.2,219.3 176.2,219.7 176.4,219.7 221.8,219.7 		"/>
		<polygon points="230,233.3 230,232.9 229.5,232.9 168.7,232.9 168.4,232.9 168.4,233.3 168.5,233.3 229.8,233.3 		"/>
		<polygon points="237.8,247 237.8,246.6 237.4,246.6 160.8,246.6 160.5,246.6 160.5,247 160.6,247 237.6,247 		"/>
		<polygon points="245.6,260.6 245.6,260.2 245.3,260.2 153,260.2 152.6,260.2 152.6,260.6 152.7,260.6 245.5,260.6 		"/>
		<polygon points="253.3,274.2 253.3,273.8 253.1,273.8 145.1,273.8 144.8,273.8 144.8,274.2 144.9,274.2 		"/>
		<polygon points="261.3,287.9 261.3,287.5 261,287.5 137.2,287.5 136.9,287.5 136.9,287.9 137,287.9 261.2,287.9 		"/>
		<polygon points="269.2,301.5 269.2,301.1 268.9,301.1 129.4,301.1 129,301.1 129,301.5 129.1,301.5 269.1,301.5 		"/>
		<polygon points="277.1,315.1 277.1,314.7 276.7,314.7 121.5,314.7 121.2,314.7 121.2,315.1 121.3,315.1 277,315.1 		"/>
		<polygon points="284.8,328.8 285,328.8 285,328.4 284.6,328.4 113.6,328.4 113.4,328.4 113.4,328.8 113.4,328.8 		"/>
	</g>
	<g>
		<polygon class="st1" points="284.1,175.4 245.6,242.1 253.2,255.3 299.3,175.4 		"/>
		<polygon class="st1" points="268.3,175.4 237.7,228.5 245.3,241.7 283.6,175.4 		"/>
		<polygon points="252.5,175.4 252.6,175.4 229.8,214.8 237.5,228.1 267.9,175.4 		"/>
		<polygon points="299.8,175.4 253.4,255.7 261.1,269 315.1,175.4 		"/>
		<polygon class="st1" points="236.8,175.4 221.9,201.2 229.6,214.4 252.1,175.4 		"/>
		<polygon class="st1" points="315.5,175.4 315.5,175.4 261.3,269.4 268.9,282.6 330.8,175.4 		"/>
		<polygon points="221.1,175.4 214.1,187.6 221.7,200.8 236.4,175.4 		"/>
		<polygon class="st1" points="207,175.4 213.8,187.2 220.6,175.4 		"/>
		<polygon points="362.8,175.4 284.9,310.2 292.5,323.5 378,175.4 		"/>
		<polygon class="st1" points="347,175.4 277,296.6 284.7,309.9 362.3,175.4 		"/>
		<polygon class="st1" points="393.3,175.4 378.5,175.4 292.8,323.9 292.8,323.9 300.2,336.7 		"/>
		<polygon points="331.3,175.4 269.2,283 276.8,296.2 346.6,175.4 		"/>
		<path d="M206.7,175h-0.3L300,337.2l0.2,0.3L394,175H206.7z M292.4,323.7l0.1-0.2l-7.6-13.2v0.1l-0.3-0.2l0.2-0.3l-7.6-13.2
			l-0.1,0.1l-0.3-0.2l0.2-0.3l-7.6-13.2l-0.1,0.1L269,283l0.2-0.3l-7.6-13.2l-0.1,0.1l-0.3-0.2l0.2-0.3l-7.6-13.2l-0.1,0.1l-0.3-0.2
			l0.2-0.3l-7.6-13.2l-0.1,0.1l-0.3-0.2l0.2-0.3l-7.6-13.2l-0.1,0.1l-0.3-0.2l0.2-0.3l-7.6-13.2l-0.1,0.1L230,215l0.2-0.3l-7.6-13.2
			v0.1l-0.3-0.2l0.2-0.3l-7.6-13.2l-0.1,0.1l-0.3-0.2l0.2-0.3l-6.8-11.8h13.6l0.2-0.3l0.3,0.2l-0.1,0.1h15.3l0.2-0.3l0.3,0.2
			l-0.1,0.1h15.3l0.1-0.2l0.3,0.2h15.4l0.2-0.4l0.3,0.2l-0.1,0.2h15.3l0.2-0.3l0.3,0.2l-0.1,0.1h15.3l0.2-0.3l0.3,0.2v0.1h15.3
			l0.1-0.2l0.3,0.2h15.4l0.1-0.3l0.3,0.2v0.1h15.3l0.2-0.3l0.3,0.2l-0.1,0.1h15.3l0.2-0.3l0.3,0.2l-0.1,0.1H378l0.2-0.3l0.3,0.2
			l-0.1,0.1h14.8L300.1,337l-7.4-12.8L292.4,323.7z"/>
		<polygon points="221.1,175.3 220.8,175.1 220.6,175.4 213.8,187.2 213.7,187.5 214,187.7 214.1,187.6 221.1,175.4 		"/>
		<polygon points="236.9,175.3 236.5,175.1 236.4,175.4 221.7,200.8 221.5,201.1 221.9,201.3 221.9,201.2 236.8,175.4 		"/>
		<polygon points="252.5,175.4 252.2,175.2 252.1,175.4 229.6,214.4 229.4,214.7 229.8,214.9 229.8,214.8 252.6,175.4 		"/>
		<polygon points="268.4,175.2 268.1,175 267.9,175.4 237.5,228.1 237.3,228.4 237.6,228.6 237.7,228.5 268.3,175.4 		"/>
		<polygon points="284.1,175.3 283.8,175.1 283.6,175.4 245.3,241.7 245.1,242 245.5,242.2 245.6,242.1 284.1,175.4 		"/>
		<polygon points="299.8,175.3 299.5,175.1 299.3,175.4 253.2,255.3 253,255.6 253.4,255.8 253.4,255.7 299.8,175.4 		"/>
		<polygon points="315.5,175.4 315.2,175.2 315.1,175.4 261.1,269 260.9,269.3 261.2,269.5 261.3,269.4 		"/>
		<polygon points="331.3,175.3 331,175.1 330.8,175.4 268.9,282.6 268.8,282.9 269.1,283.1 269.2,283 331.3,175.4 		"/>
		<polygon points="347.1,175.3 346.7,175.1 346.6,175.4 276.8,296.2 276.6,296.5 277,296.7 277,296.6 347,175.4 		"/>
		<polygon points="362.8,175.3 362.5,175.1 362.3,175.4 284.7,309.9 284.5,310.1 284.9,310.3 284.9,310.2 362.8,175.4 		"/>
		<polygon points="378.5,175.4 378.6,175.3 378.2,175.1 378,175.4 292.5,323.5 292.4,323.7 292.8,323.9 292.8,323.9 		"/>
	</g>
	<g>
		<polygon class="st1" points="245.2,99.5 283.7,166.2 299,166.2 252.9,86.3 		"/>
		<polygon class="st0" points="237.3,113.1 268,166.2 283.3,166.2 245,99.9 		"/>
		<polygon points="229.4,126.8 229.5,126.8 252.2,166.2 267.5,166.2 237.1,113.5 		"/>
		<polygon points="253.1,85.9 299.5,166.2 314.7,166.2 260.7,72.6 		"/>
		<polygon class="st1" points="221.6,140.4 236.5,166.2 251.8,166.2 229.2,127.2 		"/>
		<polygon class="st0" points="260.9,72.3 261,72.3 315.2,166.2 330.5,166.2 268.6,59 		"/>
		<polygon points="213.7,154 220.8,166.2 236,166.2 221.4,140.8 		"/>
		<polygon class="st0" points="206.7,166.2 220.3,166.2 213.5,154.4 		"/>
		<polygon points="284.6,31.3 362.4,166.2 377.7,166.2 292.2,18.1 		"/>
		<polygon class="st1" points="276.7,45 346.7,166.2 362,166.2 284.3,31.7 		"/>
		<polygon class="st1" points="299.8,4.9 292.4,17.7 378.2,166.2 378.2,166.2 393,166.2 		"/>
		<polygon points="268.8,58.6 330.9,166.2 346.2,166.2 276.5,45.4 		"/>
		<path d="M206.2,166.3l-0.2,0.3h187.3h0.3L299.8,4.1L206.2,166.3z M377.8,166.4l-0.1-0.2h-15.3v0.1l-0.3,0.2l-0.2-0.3h-15.3
			l0.1,0.1l-0.3,0.2l-0.2-0.3h-15.3l0.1,0.1l-0.3,0.2l-0.2-0.3h-15.3l0.1,0.1l-0.3,0.2l-0.2-0.3h-15.3l0.1,0.1l-0.3,0.2l-0.2-0.3
			h-15.3l0.1,0.1l-0.3,0.2l-0.2-0.3h-15.3l0.1,0.1l-0.3,0.2l-0.2-0.3h-15.3l0.1,0.1l-0.3,0.2l-0.2-0.3h-15.3v0.1l-0.3,0.2l-0.2-0.3
			h-15.3l0.1,0.1l-0.3,0.2l-0.2-0.3h-13.6l6.8-11.8l-0.2-0.3l0.3-0.2l0.1,0.1l7.6-13.2l-0.2-0.3l0.3-0.2l0.1,0.1l7.6-13.2l-0.1-0.2
			l0.3-0.2l7.7-13.3l-0.2-0.4l0.3-0.2l0.1,0.2l7.6-13.2l-0.2-0.3l0.3-0.2l0.1,0.1l7.6-13.2l-0.2-0.3l0.3-0.2v0.1l7.6-13.2l-0.1-0.2
			l0.3-0.2l7.7-13.3l-0.1-0.3l0.3-0.2v0.1l7.6-13.2l-0.2-0.3l0.3-0.2l0.1,0.1l7.6-13.2l-0.2-0.3l0.3-0.2l0.1,0.1l7.6-13.2l-0.2-0.3
			l0.3-0.2l0.1,0.1L299.4,5L393,166.2h-14.8L377.8,166.4z"/>
		<polygon points="213.7,153.9 213.3,154.1 213.5,154.4 220.3,166.2 220.5,166.5 220.8,166.3 220.8,166.2 213.7,154 		"/>
		<polygon points="221.6,140.3 221.2,140.5 221.4,140.8 236,166.2 236.2,166.5 236.6,166.3 236.5,166.2 221.6,140.4 		"/>
		<polygon points="229.4,126.8 229.2,127 229.2,127.2 251.8,166.2 252,166.5 252.3,166.3 252.2,166.2 229.5,126.8 		"/>
		<polygon points="237.2,113 236.9,113.2 237.1,113.5 267.5,166.2 267.7,166.5 268,166.3 268,166.2 237.3,113.1 		"/>
		<polygon points="245.1,99.4 244.8,99.6 245,99.9 283.3,166.2 283.4,166.5 283.8,166.3 283.7,166.2 245.2,99.5 		"/>
		<polygon points="253,85.8 252.7,86 252.9,86.3 299,166.2 299.2,166.5 299.5,166.3 299.5,166.2 253.1,85.9 		"/>
		<polygon points="260.9,72.3 260.6,72.5 260.7,72.6 314.7,166.2 314.9,166.5 315.3,166.3 315.2,166.2 261,72.3 		"/>
		<polygon points="268.8,58.5 268.5,58.7 268.6,59 330.5,166.2 330.7,166.5 331,166.3 330.9,166.2 268.8,58.6 		"/>
		<polygon points="276.6,44.9 276.3,45.1 276.5,45.4 346.2,166.2 346.4,166.5 346.8,166.3 346.7,166.2 276.7,45 		"/>
		<polygon points="284.5,31.2 284.1,31.4 284.3,31.7 362,166.2 362.1,166.5 362.5,166.3 362.4,166.2 284.6,31.3 		"/>
		<polygon points="292.4,17.7 292.4,17.6 292,17.8 292.2,18.1 377.7,166.2 377.8,166.4 378.2,166.2 378.2,166.2 		"/>
	</g>
</g>
</svg>
